<?xml version="1.0" standalone="no"?>
<!DOCTYPE svg PUBLIC "-//W3C//DTD SVG 20010904//EN"
 "http://www.w3.org/TR/2001/REC-SVG-20010904/DTD/svg10.dtd">
<svg version="1.0" xmlns="http://www.w3.org/2000/svg"
 width="400.000000pt" height="110.000000pt" viewBox="0 0 400.000000 110.000000"
 preserveAspectRatio="xMidYMid meet">

<g transform="translate(0.000000,110.000000) scale(0.100000,-0.100000)"
fill="#000000" stroke="none">
<path d="M68 1074 c-77 -41 -75 -169 2 -209 84 -43 180 13 180 105 0 92 -99
149 -182 104z"/>
<path d="M307 1074 c-4 -4 -7 -54 -7 -111 l0 -103 94 0 c112 0 108 -5 105 126
l-1 92 -92 1 c-51 1 -95 -1 -99 -5z"/>
<path d="M577 1074 c-4 -4 -7 -54 -7 -111 l0 -103 95 0 96 0 -3 108 -3 107
-85 3 c-47 1 -89 0 -93 -4z"/>
<path d="M940 710 c0 -103 1 -110 20 -110 19 0 20 7 20 110 0 103 -1 110 -20
110 -19 0 -20 -7 -20 -110z"/>
<path d="M1040 710 c0 -103 1 -110 20 -110 18 0 20 7 20 83 l1 82 47 -82 c41
-72 51 -83 75 -83 l27 0 0 110 c0 103 -1 110 -20 110 -17 0 -19 -8 -22 -76
l-3 -77 -44 77 c-38 67 -47 76 -72 76 l-29 0 0 -110z"/>
<path d="M1294 795 c-24 -37 -11 -69 39 -97 58 -32 56 -53 -5 -52 -39 0 -48
-3 -48 -17 0 -20 20 -29 64 -29 43 0 76 25 76 58 0 35 -8 46 -50 69 -21 12
-35 27 -35 39 0 16 6 19 37 16 38 -3 60 14 37 29 -8 5 -33 9 -56 9 -34 0 -46
-5 -59 -25z"/>
<path d="M1442 803 c2 -11 14 -19 30 -21 27 -3 27 -4 30 -90 3 -82 4 -87 26
-90 21 -3 22 -1 22 87 l0 91 30 0 c23 0 30 4 30 20 0 18 -7 20 -86 20 -76 0
-85 -2 -82 -17z"/>
<path d="M1650 710 c0 -103 1 -110 20 -110 19 0 20 7 20 110 0 103 -1 110 -20
110 -19 0 -20 -7 -20 -110z"/>
<path d="M1730 800 c0 -16 7 -20 30 -20 l30 0 0 -90 c0 -83 1 -90 20 -90 19 0
20 7 20 90 l0 90 30 0 c23 0 30 4 30 20 0 18 -7 20 -80 20 -73 0 -80 -2 -80
-20z"/>
<path d="M1930 735 c0 -78 2 -88 25 -110 34 -35 96 -35 130 0 23 22 25 32 25
110 0 78 -2 85 -20 85 -18 0 -20 -7 -20 -73 0 -86 -13 -110 -55 -105 l-30 3
-3 88 c-3 85 -3 87 -27 87 -25 0 -25 -1 -25 -85z"/>
<path d="M2142 803 c2 -12 14 -19 36 -21 l32 -3 0 -90 c0 -82 1 -89 20 -89 19
0 20 7 20 90 l0 90 30 0 c23 0 30 4 30 20 0 18 -7 20 -86 20 -76 0 -85 -2 -82
-17z"/>
<path d="M2369 791 c-25 -25 -29 -37 -29 -81 0 -44 4 -56 29 -81 31 -31 76
-38 125 -19 61 23 75 141 21 187 -40 35 -108 32 -146 -6z m111 -21 c13 -13 20
-33 20 -56 0 -54 -15 -74 -55 -74 -41 0 -55 20 -55 79 0 30 6 44 22 55 30 21
44 20 68 -4z"/>
<path d="M2680 710 c0 -103 1 -110 20 -110 17 0 20 7 20 45 l0 45 41 0 c33 0
40 3 37 18 -2 12 -14 18 -41 20 -32 3 -37 7 -37 28 0 21 4 24 40 24 33 0 40 3
40 20 0 18 -7 20 -60 20 l-60 0 0 -110z"/>
<path d="M2850 710 l0 -111 63 3 c47 2 62 7 62 18 0 11 -13 16 -43 18 -40 3
-43 5 -40 30 3 23 8 27 41 30 23 2 37 8 37 17 0 9 -14 15 -37 17 -30 2 -39 8
-41 25 -3 19 2 22 40 25 31 2 44 8 46 21 3 15 -5 17 -62 17 l-66 0 0 -110z"/>
<path d="M3022 713 l3 -108 42 -3 c61 -5 111 20 129 64 21 50 11 96 -27 128
-25 22 -41 26 -90 26 l-60 0 3 -107z m120 50 c41 -37 9 -123 -47 -123 -24 0
-25 2 -25 70 0 69 0 70 27 70 14 0 35 -7 45 -17z"/>
<path d="M3250 710 l0 -110 65 0 c58 0 65 2 65 20 0 17 -7 20 -40 20 -38 0
-40 2 -40 30 0 28 2 30 40 30 29 0 40 4 40 15 0 11 -11 15 -40 15 -36 0 -40 3
-40 25 0 23 4 25 40 25 33 0 40 3 40 20 0 18 -7 20 -65 20 l-65 0 0 -110z"/>
<path d="M3430 710 c0 -102 1 -110 19 -110 16 0 20 8 23 42 2 23 8 43 14 45 7
2 25 -17 40 -42 20 -31 36 -45 52 -45 29 0 28 7 -8 54 -30 39 -30 40 -10 58
27 25 26 73 -2 92 -14 10 -44 16 -75 16 l-53 0 0 -110z m100 46 c0 -16 -7 -27
-20 -31 -27 -9 -40 1 -40 31 0 20 5 24 30 24 25 0 30 -4 30 -24z"/>
<path d="M3651 722 c-19 -53 -36 -103 -39 -109 -2 -8 5 -13 20 -13 17 0 27 8
35 30 10 26 16 30 48 30 32 0 38 -4 48 -30 8 -22 18 -30 35 -30 15 0 22 5 19
13 -2 6 -19 56 -38 109 -33 95 -35 98 -64 98 -29 0 -31 -3 -64 -98z m84 1 c6
-31 5 -33 -19 -33 -30 0 -30 1 -15 54 12 43 21 37 34 -21z"/>
<path d="M3850 710 l0 -110 70 0 c63 0 70 2 70 20 0 17 -7 20 -45 20 l-45 0 0
90 c0 89 0 90 -25 90 l-25 0 0 -110z"/>
<path d="M128 803 l-108 -4 0 -94 0 -95 104 0 105 0 3 100 c2 55 3 99 3 98 0
-1 -48 -4 -107 -5z"/>
<path d="M298 708 l3 -98 100 0 99 0 0 94 0 95 -102 3 -103 3 3 -97z"/>
<path d="M398 543 l-98 -4 0 -94 0 -95 100 0 101 0 -2 100 c-1 55 -2 99 -3 98
0 -1 -45 -4 -98 -5z"/>
<path d="M20 441 l0 -96 108 0 107 0 -3 98 -3 98 -105 -2 -104 -1 0 -97z"/>
<path d="M572 444 l3 -96 90 0 90 0 3 96 3 96 -96 0 -96 0 3 -96z"/>
<path d="M1436 494 c-10 -25 -1 -27 19 -4 15 17 16 20 3 20 -9 0 -19 -7 -22
-16z"/>
<path d="M940 414 c0 -54 4 -83 10 -79 6 3 10 19 10 36 0 25 4 29 28 29 35 0
52 16 52 52 0 32 -24 48 -69 48 l-31 0 0 -86z m78 53 c23 -18 9 -42 -31 -52
-26 -7 -27 -6 -27 33 0 37 2 40 23 35 12 -3 28 -10 35 -16z"/>
<path d="M1080 490 c0 -5 5 -10 10 -10 6 0 10 5 10 10 0 6 -4 10 -10 10 -5 0
-10 -4 -10 -10z"/>
<path d="M1080 395 c0 -37 4 -65 10 -65 6 0 10 28 10 65 0 37 -4 65 -10 65 -6
0 -10 -28 -10 -65z"/>
<path d="M1155 451 c-3 -5 9 -11 27 -13 44 -4 47 -25 4 -33 -75 -15 -73 -70 3
-70 l41 -1 0 57 c0 43 -4 58 -16 63 -23 9 -52 7 -59 -3z m65 -70 c0 -14 -30
-41 -45 -41 -18 0 -28 17 -21 35 6 16 66 21 66 6z"/>
<path d="M1284 400 l1 -65 48 0 47 -1 0 64 c0 39 -4 61 -10 57 -5 -3 -10 -26
-10 -49 0 -50 -21 -76 -48 -59 -11 6 -19 30 -23 64 l-6 54 1 -65z"/>
<path d="M1433 395 c0 -38 2 -53 4 -32 2 20 2 52 0 70 -2 17 -4 1 -4 -38z"/>
<path d="M128 273 l-108 -4 0 -94 0 -95 104 0 105 0 3 100 c2 55 3 99 3 98 0
-1 -48 -4 -107 -5z"/>
<path d="M298 177 l3 -98 97 3 97 3 3 92 3 92 -103 3 -103 3 3 -98z"/>
<path d="M2024 155 c0 -50 1 -71 3 -48 2 23 2 64 0 90 -2 26 -3 8 -3 -42z"/>
<path d="M2315 231 c-3 -5 -1 -12 5 -16 5 -3 10 1 10 9 0 18 -6 21 -15 7z"/>
<path d="M950 210 c-26 -26 -28 -100 -2 -122 25 -23 56 -30 83 -19 22 9 21 10
-12 10 -45 1 -69 26 -69 74 0 44 35 73 75 63 14 -4 25 -2 25 4 0 19 -79 11
-100 -10z"/>
<path d="M1900 150 c0 -47 4 -80 10 -80 6 0 10 15 10 34 0 32 3 35 33 39 l32
4 -32 1 c-31 2 -33 5 -33 36 0 33 2 35 38 39 34 3 33 4 -10 5 l-48 2 0 -80z"/>
<path d="M1090 181 c0 -5 12 -9 27 -8 19 1 28 -3 31 -15 3 -13 -3 -18 -22 -18
-24 0 -56 -23 -56 -40 0 -18 33 -41 49 -34 9 4 24 7 34 8 15 0 17 8 15 56 l-3
55 -37 3 c-21 2 -38 -1 -38 -7z m63 -57 c11 -12 -13 -44 -33 -44 -27 0 -36 21
-15 37 20 14 38 17 48 7z"/>
<path d="M1210 129 c0 -33 4 -59 10 -59 6 0 10 20 10 44 0 46 19 72 45 62 11
-4 15 -20 15 -56 0 -27 5 -50 10 -50 6 0 10 20 10 44 0 46 19 72 45 62 11 -4
15 -20 15 -56 0 -28 5 -50 10 -50 7 0 10 22 8 58 l-3 57 -87 1 -88 2 0 -59z"/>
<path d="M1430 98 c0 -52 4 -88 10 -88 6 0 10 16 10 35 0 33 2 35 21 25 34
-19 69 11 69 59 0 48 -16 61 -69 59 l-41 -1 0 -89z m78 70 c18 -18 15 -77 -4
-85 -24 -9 -49 10 -52 41 -6 45 29 71 56 44z"/>
<path d="M1570 145 c0 -52 29 -92 58 -79 9 3 25 6 35 6 14 -1 17 8 17 59 0 73
-18 79 -22 7 -3 -47 -6 -53 -27 -56 -30 -5 -41 12 -41 66 0 23 -4 42 -10 42
-5 0 -10 -20 -10 -45z"/>
<path d="M1720 175 c-15 -18 -7 -31 31 -50 42 -22 38 -45 -8 -46 -33 0 -35 -1
-15 -9 31 -13 72 4 72 30 0 15 -11 26 -36 36 -40 17 -41 39 -1 39 15 -1 27 3
27 7 0 14 -57 9 -70 -7z"/>
<path d="M2086 174 c-25 -25 -20 -81 8 -100 22 -13 29 -14 53 -2 55 26 38 118
-22 118 -13 0 -31 -7 -39 -16z m63 -8 c7 -8 11 -30 9 -48 -3 -29 -6 -33 -33
-33 -27 0 -30 4 -33 33 -5 52 30 81 57 48z"/>
<path d="M2222 130 c0 -36 2 -54 5 -40 9 58 15 70 41 84 25 14 25 15 5 16 -12
0 -25 -5 -29 -11 -4 -8 -9 -7 -15 2 -5 9 -8 -11 -7 -51z"/>
<path d="M2310 130 c0 -33 4 -60 10 -60 6 0 10 27 10 60 0 33 -4 60 -10 60 -6
0 -10 -27 -10 -60z"/>
<path d="M2385 179 c-5 -8 -1 -9 14 -4 22 7 51 -9 51 -26 0 -5 -13 -9 -29 -9
-28 0 -61 -22 -61 -40 0 -20 33 -40 54 -34 11 4 27 7 34 7 9 0 12 16 10 56 -3
55 -4 56 -35 59 -17 2 -34 -2 -38 -9z m60 -59 c9 -15 -14 -40 -36 -40 -27 0
-35 21 -14 37 22 16 41 17 50 3z"/>
<path d="M2500 128 c0 -32 4 -58 10 -58 6 0 10 18 10 39 0 43 23 76 47 67 8
-3 17 -6 19 -6 2 0 4 -22 4 -50 0 -27 5 -50 10 -50 15 0 12 96 -3 108 -7 6
-32 10 -55 9 l-42 -1 0 -58z"/>
<path d="M2654 165 c-21 -32 -12 -69 21 -91 23 -15 27 -15 50 0 33 22 42 59
21 91 -22 34 -70 34 -92 0z m71 -1 c34 -35 -3 -103 -42 -78 -24 15 -28 58 -8
78 9 9 20 16 25 16 5 0 16 -7 25 -16z"/>
</g>
</svg>
