<?xml version="1.0" standalone="no"?>
<!DOCTYPE svg PUBLIC "-//W3C//DTD SVG 20010904//EN"
 "http://www.w3.org/TR/2001/REC-SVG-20010904/DTD/svg10.dtd">
<svg version="1.0" xmlns="http://www.w3.org/2000/svg"
 width="526.000000pt" height="710.000000pt" viewBox="0 0 526.000000 710.000000"
 preserveAspectRatio="xMidYMid meet">

<g transform="translate(0.000000,710.000000) scale(0.100000,-0.100000)"
fill="#000000" stroke="none">
<path d="M725 7090 c-356 -56 -638 -333 -700 -685 -19 -111 -19 -180 0 -290
57 -323 295 -579 620 -666 95 -25 276 -30 370 -10 320 69 571 314 646 628 72
304 -38 637 -275 834 -87 72 -225 143 -330 169 -94 24 -247 33 -331 20z"/>
<path d="M2031 6968 c-85 -44 -81 -8 -81 -718 0 -690 -2 -666 63 -714 28 -21
39 -21 663 -24 631 -2 636 -2 673 19 21 11 46 35 57 52 18 31 19 60 19 669 0
627 0 637 -21 664 -11 15 -33 37 -48 48 -27 21 -39 21 -654 24 l-627 2 -44
-22z"/>
<path d="M3865 6976 c-45 -19 -83 -70 -90 -119 -3 -23 -5 -313 -3 -644 3 -590
3 -602 24 -629 11 -15 33 -37 48 -48 27 -21 39 -21 659 -24 705 -3 676 -5 724
67 l23 34 0 631 c0 717 4 681 -80 724 l-44 22 -616 0 c-489 -1 -621 -4 -645
-14z"/>
<path d="M179 5137 c-72 -47 -69 -21 -69 -712 0 -691 -3 -665 69 -712 l34 -23
637 0 637 0 34 23 c72 47 69 21 69 712 0 691 3 665 -69 712 l-34 23 -637 0
-637 0 -34 -23z"/>
<path d="M2040 5153 c-8 -3 -26 -15 -38 -27 -53 -48 -52 -28 -52 -701 0 -678
-2 -652 55 -705 l27 -25 646 -3 c635 -2 648 -2 680 18 19 12 41 38 52 63 19
40 20 72 20 652 0 580 -1 612 -20 652 -11 25 -33 51 -52 63 -32 19 -48 20
-668 19 -349 0 -642 -3 -650 -6z"/>
<path d="M181 3318 c-85 -44 -81 -8 -81 -716 0 -690 -2 -668 64 -715 l31 -22
629 -3 c619 -2 629 -2 672 18 31 16 48 33 64 64 20 43 20 53 18 669 -3 614 -3
626 -24 653 -11 15 -33 37 -48 48 -27 21 -39 21 -654 24 l-627 2 -44 -22z"/>
<path d="M2031 3308 c-85 -44 -81 -8 -81 -718 0 -690 -2 -666 63 -714 28 -21
39 -21 660 -24 707 -3 685 -5 730 67 l22 36 0 637 c0 627 0 637 -21 664 -11
15 -33 37 -48 48 -27 21 -39 21 -654 24 l-627 2 -44 -22z"/>
<path d="M3860 3308 c-26 -14 -53 -37 -65 -58 -19 -34 -20 -51 -20 -665 l0
-630 23 -36 c44 -71 18 -69 719 -69 609 0 629 1 661 20 18 11 41 34 52 52 19
32 20 52 20 663 0 596 -1 632 -19 665 -10 19 -34 44 -52 55 -33 19 -55 20
-654 23 l-620 2 -45 -22z"/>
<path d="M190 1472 c-22 -12 -44 -35 -58 -63 l-22 -44 2 -627 c3 -615 3 -627
24 -654 11 -15 33 -37 48 -48 27 -21 39 -21 653 -24 621 -2 626 -2 670 19 30
15 50 33 64 60 19 38 19 57 17 672 l-3 632 -22 31 c-47 66 -25 64 -715 64
-584 0 -626 -1 -658 -18z"/>
<path d="M2030 1462 c-19 -11 -44 -31 -55 -46 -20 -27 -20 -42 -23 -664 -3
-724 -7 -686 79 -730 l44 -22 627 2 c615 3 627 3 654 24 15 11 37 33 48 48 21
27 21 37 21 666 0 629 0 639 -21 666 -11 15 -33 37 -48 48 -27 21 -39 21 -659
24 -601 2 -634 1 -667 -16z"/>
</g>
</svg>
